<!-- Generated by IcoMoon.io -->
<svg version="1.1" xmlns="http://www.w3.org/2000/svg" width="32" height="32" viewBox="0 0 32 32">
<title>404</title>
<path fill="#999" d="M12.797 7.122c0-0.325-0.262-0.588-0.588-0.588s-0.588 0.263-0.588 0.588 0.262 0.588 0.588 0.588 0.588-0.263 0.588-0.588zM15.003 7.122c0-0.325-0.262-0.588-0.588-0.588s-0.588 0.263-0.588 0.588 0.262 0.588 0.588 0.588 0.588-0.263 0.588-0.588zM6.931 9.756c-0.091 0.431-0.138 0.878-0.138 1.334 0 0.234 0.013 0.466 0.037 0.697 0.131-0.059 0.263-0.116 0.397-0.169-0.013-0.162-0.022-0.325-0.022-0.494 0-0.4 0.041-0.791 0.112-1.169l-0.388-0.2zM13.316 10.125c0.438 0 0.794-0.356 0.794-0.794v-0.863h-1.588v0.863c0 0.438 0.353 0.794 0.794 0.794zM29.116 14.125h2.278c0.172 0 0.309-0.137 0.309-0.309s-0.137-0.309-0.309-0.309h-0.731c0.006-0.034 0.009-0.069 0.009-0.103 0-0.4-0.325-0.725-0.725-0.725h-0.828c-0.4 0-0.725 0.325-0.725 0.725-0.003 0.397 0.319 0.722 0.722 0.722zM0.619 15.369h0.897c0.172 0 0.309-0.137 0.309-0.309s-0.137-0.309-0.309-0.309h-0.897c-0.172 0-0.309 0.137-0.309 0.309s0.138 0.309 0.309 0.309zM17.128 6.559c-0.075 0.1-0.122 0.222-0.122 0.356 0 0.325 0.262 0.588 0.587 0.588 0.125 0 0.238-0.037 0.334-0.103-0.241-0.306-0.509-0.588-0.8-0.841zM12.134 11.866c0.894 0.341 1.772 0.634 2.606 0.881 0.356-0.047 0.722-0.072 1.091-0.072 0.144 0 0.291 0.003 0.434 0.012-1.166-0.297-2.472-0.709-3.828-1.225-1.919-0.731-3.622-1.547-4.9-2.313 0.822-2.403 3.097-4.131 5.778-4.131 3.372 0 6.106 2.734 6.106 6.106 0 0.313-0.025 0.616-0.069 0.916 0.119-0.063 0.241-0.119 0.366-0.169 0.031-0.256 0.047-0.516 0.047-0.781 0-3.581-2.903-6.484-6.484-6.484-2.822 0-5.222 1.803-6.112 4.319-1.409-0.894-2.197-1.697-2.013-2.188 0.188-0.491 1.322-0.569 2.984-0.291 0.125-0.147 0.259-0.291 0.397-0.428-2.341-0.441-4.009-0.347-4.284 0.375-0.453 1.191 3.075 3.641 7.881 5.472zM20.628 11.85c0.234 0.003 0.462 0.031 0.681 0.081-0.272-0.344-0.678-0.719-1.2-1.109v0.028c0 0.169-0.009 0.338-0.022 0.503 0.216 0.172 0.394 0.341 0.541 0.497zM25.444 5.388c-0.056 0.056-0.091 0.131-0.091 0.219 0 0.172 0.137 0.309 0.309 0.309 0.103 0 0.194-0.050 0.253-0.131-0.137-0.153-0.297-0.284-0.472-0.397zM25.2 18.841c0.278 0.159 0.6 0.253 0.947 0.253 1.047 0 1.897-0.85 1.897-1.897s-0.85-1.897-1.897-1.897-1.897 0.85-1.897 1.897c0 0.484 0.181 0.928 0.481 1.262l-0.119 0.575 0.587-0.194zM25.906 16.266c0-0.116 0.094-0.206 0.206-0.206 0.116 0 0.206 0.094 0.206 0.206v1.034c0 0.116-0.094 0.206-0.206 0.206-0.116 0-0.206-0.094-0.206-0.206v-1.034zM25.906 17.956c0-0.094 0.078-0.172 0.172-0.172h0.069c0.094 0 0.172 0.078 0.172 0.172v0.069c0 0.094-0.078 0.172-0.172 0.172h-0.069c-0.094 0-0.172-0.078-0.172-0.172v-0.069zM7.966 27.028h1.034v-3.034h-1.034v3.034zM20.8 16.266v9.25h-0.425l0.953 1.653 0.953-1.653h-0.447v-7.803l0.034-0.012 3.831 5.050h-3.45v0.966h4.416v-1.084l-4.85-6.366h-1.016zM31.909 18.472c0-1.6-1.297-2.897-2.897-2.897-0.166 0-0.328 0.016-0.488 0.044-0.238-0.494-0.609-0.909-1.072-1.197 0.072-0.175 0.109-0.369 0.109-0.569 0-0.838-0.678-1.519-1.519-1.519-0.103 0-0.206 0.009-0.306 0.031-0.288-0.537-0.453-1.175-0.453-1.859 0-0.019 0-0.037 0.003-0.056 1.744-0.081 3.034-0.381 3.034-0.738 0-0.228-0.534-0.434-1.381-0.572v-1.772c0-1.525-1.234-2.759-2.759-2.759s-2.759 1.234-2.759 2.759v1.819c-0.684 0.137-1.103 0.319-1.103 0.522 0 0.341 1.178 0.628 2.803 0.725-0.075 0.95-0.328 1.781-0.691 2.35-0.5-0.409-1.141-0.656-1.837-0.656-1.006 0-1.891 0.512-2.409 1.291-0.725-0.341-1.531-0.531-2.384-0.531-0.838 0-1.631 0.184-2.344 0.512-0.953-1.197-2.422-1.963-4.072-1.963-2.722 0-4.953 2.088-5.188 4.75-1.697 0.566-3.131 1.709-4.072 3.194 0.144 0.025 0.287 0.056 0.431 0.094 0.919-1.384 2.294-2.441 3.913-2.947 0.009-0.053 0.050-0.172 0.059-0.178 0.169-2.55 2.291-4.569 4.888-4.569 1.716 0 3.228 0.884 4.103 2.222-0.741 0.050-1.441 0.238-2.075 0.544 0.072 0.091 0.137 0.188 0.197 0.287 0.688-0.319 1.453-0.5 2.263-0.5 0.409 0 0.806 0.047 1.188 0.134 0.056-0.106 0.113-0.213 0.172-0.316-0.434-0.106-0.891-0.162-1.359-0.162h-0.037c-0.059-0.103-0.125-0.203-0.191-0.3 0.659-0.294 1.391-0.459 2.162-0.459 1.906 0 3.578 1.003 4.516 2.512 0.059-0.091 0.122-0.178 0.188-0.266-0.522-0.813-1.247-1.481-2.1-1.938 0.472-0.688 1.262-1.137 2.163-1.137 0.637 0 1.222 0.228 1.675 0.606-0.103 0.128-0.209 0.238-0.325 0.322 0.075 0.072 0.144 0.15 0.209 0.228 0.688-0.622 1.172-1.984 1.197-3.578-0.069 0.003-0.134 0.006-0.203 0.006h-0.003c0 0.053-0.003 0.106-0.006 0.156-0.125-0.037-0.2-0.078-0.2-0.122 0-0.134 0.634-0.241 1.416-0.241s1.416 0.109 1.416 0.241c0 0.072-0.181 0.134-0.469 0.178 0.003-0.059 0.009-0.119 0.016-0.178-0.094 0.019-0.188 0.028-0.284 0.031-0.019 0.688-0.019 1.709 0.697 2.803 0.1-0.016 0.2-0.025 0.306-0.034-0.066-0.088-0.125-0.178-0.184-0.272 0.063-0.009 0.128-0.016 0.197-0.016 0.725 0 1.309 0.588 1.309 1.309 0 0.359-0.144 0.684-0.378 0.922 0.019 0.081 0.028 0.166 0.031 0.25 0.122-0.1 0.231-0.222 0.316-0.356 0.459 0.291 0.819 0.722 1.022 1.234 0.019-0.003 0.038-0.006 0.053-0.009 0.006 0.012 0.016 0.022 0.022 0.034 0.2-0.047 0.409-0.075 0.625-0.075 1.466 0 2.656 1.191 2.656 2.656s-1.191 2.656-2.656 2.656c-0.059 0-0.119-0.003-0.178-0.006 0.116-0.297 0.188-0.616 0.206-0.95-0.116 0.047-0.238 0.087-0.363 0.128-0.1 0.831-0.563 1.55-1.222 1.997 0 0.147-0.009 0.291-0.022 0.434 0.572-0.319 1.031-0.813 1.313-1.406 0.075 0.006 0.153 0.009 0.228 0.009 0.488 0 0.95-0.122 1.353-0.334 0.441 0.397 0.716 0.972 0.716 1.613 0 0.584-0.231 1.113-0.606 1.503 0.038 0.094 0.075 0.188 0.106 0.284 0.478-0.447 0.775-1.081 0.775-1.788 0-0.691-0.288-1.313-0.747-1.759 0.778-0.512 1.294-1.4 1.294-2.409zM24.319 8.95c-1.003 0-1.919 0.069-2.619 0.184 0-0.019-0.003-0.037-0.003-0.059v-1.713c0-1.372 1.113-2.484 2.484-2.484s2.484 1.112 2.484 2.484v1.728c-0.659-0.088-1.472-0.141-2.347-0.141zM24.25 6.466c-0.647 0-1.172 0.525-1.172 1.172v1.219c0.391-0.031 0.809-0.047 1.241-0.047 0.381 0 0.753 0.012 1.103 0.037v-1.209c0-0.644-0.525-1.172-1.172-1.172zM23.906 7.916c-0.116 0-0.206-0.094-0.206-0.206 0-0.116 0.094-0.206 0.206-0.206 0.116 0 0.206 0.094 0.206 0.206s-0.094 0.206-0.206 0.206zM24.594 7.916c-0.116 0-0.206-0.094-0.206-0.206 0-0.116 0.094-0.206 0.206-0.206 0.116 0 0.206 0.094 0.206 0.206 0.003 0.112-0.091 0.206-0.206 0.206zM10.066 12.525c0.031-0.091 0.059-0.181 0.094-0.272-0.241-0.041-0.491-0.063-0.741-0.063-0.213 0-0.422 0.016-0.628 0.044 0.037 0.084 0.069 0.172 0.097 0.262 0.162-0.019 0.331-0.031 0.5-0.031 0.228 0.003 0.456 0.025 0.678 0.059zM13.556 23.647h6.831v-0.897h-7.109l0.278 0.897zM9.003 22.75l-4.919 0.003 3.884-5.041v4.694h1.034v-6.141h-1.034l-4.831 6.347v1.034h8.278l-0.219-0.894-2.194-0.003zM14.906 25.075c-0.859 0-1.475-0.469-1.85-1.381-0.269-0.656-0.403-1.544-0.403-2.656 0-1.128 0.134-2.012 0.403-2.656 0.375-0.925 0.994-1.381 1.85-1.381 0.859 0 1.475 0.456 1.85 1.381 0.269 0.644 0.416 1.528 0.416 2.656 0 0.475-0.028 0.909-0.078 1.3h1.087c0.053-0.403 0.078-0.837 0.078-1.3 0-1.45-0.256-2.603-0.766-3.462-0.591-1.019-1.45-1.516-2.591-1.516-1.153 0-2.012 0.497-2.591 1.516-0.509 0.859-0.766 2.012-0.766 3.462s0.256 2.603 0.766 3.462c0.578 1.006 1.434 1.516 2.591 1.516 1.141 0 2-0.509 2.591-1.516 0.094-0.159 0.178-0.328 0.253-0.506h-1.134c-0.378 0.712-0.947 1.081-1.706 1.081z"></path>
</svg>
