<!-- Generated by IcoMoon.io -->
<svg version="1.1" xmlns="http://www.w3.org/2000/svg" width="32" height="32" viewBox="0 0 32 32">
<title>log</title>
<path d="M26.813 31.996h-21.627c-2.033 0-3.697-1.617-3.697-3.593v-24.806c0-1.976 1.664-3.593 3.697-3.593h21.627c2.033 0 3.697 1.617 3.697 3.593v24.806c0 1.976-1.664 3.593-3.697 3.593zM28.408 4.293c0-1.044-1.261-1.897-1.951-1.897h-20.531c-1.456 0-2.334 0.853-2.334 1.897v23.415c0 1.043 0.878 1.896 1.951 1.896h20.914c1.073 0 1.951-0.853 1.951-1.896v-23.415zM24.858 23.89h-12.241c-0.711 0-1.288-0.526-1.288-1.176v-0.036c0-0.649 0.577-1.176 1.288-1.176h12.241c0.711 0 1.288 0.526 1.288 1.176v0.036c0 0.649-0.577 1.176-1.288 1.176zM24.858 18.399h-12.241c-0.711 0-1.288-0.529-1.288-1.182v-0.036c0-0.653 0.577-1.182 1.288-1.182h12.241c0.711 0 1.288 0.529 1.288 1.182v0.036c0 0.653-0.577 1.182-1.288 1.182zM24.858 11.462h-12.241c-0.711 0-1.288-0.502-1.288-1.121v-0.034c0-0.619 0.577-1.121 1.288-1.121h12.241c0.711 0 1.288 0.502 1.288 1.121v0.034c0 0.619-0.577 1.121-1.288 1.121zM8.175 23.863c-0.663 0-1.2-0.522-1.2-1.166s0.537-1.166 1.2-1.166c0.663 0 1.2 0.522 1.2 1.166s-0.537 1.166-1.2 1.166zM8.175 18.366c-0.663 0-1.2-0.522-1.2-1.166s0.537-1.166 1.2-1.166c0.663 0 1.2 0.522 1.2 1.166s-0.537 1.166-1.2 1.166zM8.175 11.462c-0.663 0-1.2-0.522-1.2-1.166s0.537-1.167 1.2-1.167c0.663 0 1.2 0.522 1.2 1.167s-0.537 1.166-1.2 1.166z"></path>
</svg>
