<!-- Generated by IcoMoon.io -->
<svg version="1.1" xmlns="http://www.w3.org/2000/svg" width="32" height="32" viewBox="0 0 32 32">
<title>monitor</title>
<path d="M23.352 26.436c-0.134 0.008-0.236 0.016-0.338 0.016-4.148 0.002-8.298 0.002-12.446 0.002-0.354 0-0.356-0.002-0.354-0.358 0-0.292 0-0.584 0-0.876 0-0.248 0.102-0.348 0.356-0.348 0.868 0 1.736 0.002 2.602 0 0.362-0.002 0.396-0.042 0.396-0.392 0-0.292 0-0.584 0-0.876-0.004-0.326-0.082-0.404-0.404-0.404-2.642 0-5.286 0-7.926 0-0.69 0-1.178-0.306-1.428-0.954-0.068-0.176-0.122-0.372-0.122-0.558-0.006-5.53 0-11.058-0.010-16.586 0-0.644 0.346-1.048 0.826-1.368 0.166-0.11 0.4-0.132 0.608-0.16 0.19-0.026 0.39-0.008 0.588-0.008 7.516 0 15.034 0 22.548 0 0.538 0 1.016 0.152 1.35 0.584 0.22 0.282 0.404 0.566 0.402 0.99-0.020 5.498-0.014 10.996-0.014 16.494 0 0.27 0 0.51-0.23 0.746-0.162 0.168-0.256 0.428-0.482 0.546-0.208 0.112-0.44 0.254-0.662 0.258-1.38 0.026-2.762 0.016-4.142 0.016-1.348 0.002-2.698 0-4.044 0-0.334 0-0.342 0.008-0.344 0.348-0.002 0.346 0.014 0.694-0.006 1.040-0.014 0.254 0.12 0.288 0.316 0.288 0.854-0.004 1.706-0.002 2.556-0.002 0.37 0 0.406 0.038 0.404 0.402 0 0.376 0 0.754 0 1.16zM5.314 5.16c-0.010 0.168-0.026 0.3-0.026 0.432-0.002 1.176 0 2.35 0 3.526 0 2.926 0 5.852 0 8.78 0 0.438 0 0.436 0.438 0.436 7.406 0 14.812 0 22.216 0 0.354 0 0.426-0.072 0.426-0.424 0-4.126 0-8.25 0-12.376 0-0.35-0.026-0.374-0.376-0.374-7.46 0-14.922 0-22.384 0-0.086 0-0.172 0-0.294 0z"></path>
<path d="M14.91 11.38c-0.342 0.032-0.648-0.044-0.93-0.254-0.040-0.030-0.166 0.002-0.222 0.046-0.626 0.494-1.242 0.996-1.866 1.492-0.394 0.312-0.8 0.612-1.194 0.922-0.156 0.124-0.306 0.256-0.12 0.474 0.026 0.030 0.032 0.094 0.020 0.136-0.15 0.5-0.29 0.998-0.832 1.246-0.688 0.314-1.336 0.13-1.802-0.44-0.278-0.34-0.34-0.736-0.258-1.134 0.092-0.454 0.356-0.828 0.804-1.004 0.238-0.092 0.512-0.104 0.77-0.146 0.052-0.008 0.12-0.006 0.162 0.020 0.38 0.242 0.662 0.106 0.966-0.174 0.356-0.33 0.764-0.606 1.15-0.904 0.568-0.442 1.144-0.878 1.702-1.332 0.090-0.074 0.158-0.228 0.156-0.344-0.012-0.534 0.24-0.954 0.648-1.216 0.386-0.248 0.854-0.31 1.322-0.104 0.254 0.11 0.462 0.25 0.618 0.478 0.288 0.43 0.37 0.874 0.154 1.372-0.040 0.092 0.062 0.28 0.146 0.384 0.35 0.432 0.752 0.826 1.060 1.282 0.16 0.238 0.324 0.204 0.528 0.218 0.264 0.018 0.546-0.080 0.788 0.132 0.028 0.030 0.172-0.022 0.23-0.072 0.414-0.376 0.82-0.762 1.23-1.146 0.694-0.646 1.384-1.294 2.080-1.94 0.236-0.218 0.486-0.42 0.71-0.65 0.080-0.082 0.134-0.216 0.146-0.332 0.020-0.186-0.032-0.38-0.008-0.566 0.056-0.436 0.216-0.828 0.634-1.040 0.226-0.114 0.476-0.26 0.712-0.256 0.412 0.006 0.82 0.138 1.124 0.452 0.418 0.434 0.402 0.988 0.292 1.504-0.084 0.384-0.4 0.668-0.792 0.8-0.216 0.074-0.454 0.094-0.682 0.134-0.044 0.008-0.106 0.010-0.138-0.014-0.41-0.284-0.62 0.034-0.87 0.272-0.398 0.382-0.812 0.75-1.218 1.126-0.59 0.55-1.18 1.104-1.768 1.656-0.29 0.274-0.586 0.542-0.864 0.828-0.070 0.070-0.122 0.206-0.11 0.304 0.064 0.614-0.168 1.118-0.678 1.414-0.332 0.194-0.732 0.304-1.162 0.116-0.296-0.132-0.576-0.25-0.748-0.53-0.258-0.412-0.378-0.842-0.152-1.322 0.070-0.148 0.086-0.306-0.058-0.472-0.374-0.426-0.712-0.884-1.070-1.324-0.048-0.056-0.136-0.098-0.208-0.104-0.132-0.014-0.268 0.006-0.402 0.012zM9.584 14.138c-0.004-0.28-0.162-0.42-0.47-0.418-0.28 0.002-0.448 0.172-0.442 0.45 0.004 0.278 0.186 0.458 0.452 0.456 0.236-0.004 0.462-0.246 0.46-0.488zM24.504 7.524c-0.298-0.002-0.45 0.142-0.454 0.434-0.004 0.28 0.172 0.474 0.428 0.474 0.222 0 0.482-0.244 0.484-0.458 0.004-0.242-0.204-0.448-0.458-0.45zM17.558 13.75c-0.006 0.324 0.106 0.454 0.396 0.458s0.5-0.178 0.504-0.434c0.002-0.154-0.238-0.482-0.464-0.476-0.278 0.006-0.43 0.152-0.436 0.452zM15.324 9.988c-0.102-0.354-0.29-0.54-0.676-0.42-0.21 0.064-0.218 0.258-0.27 0.404-0.048 0.142 0.204 0.414 0.42 0.446 0.328 0.050 0.426-0.21 0.526-0.43z"></path>
</svg>
