<!-- Generated by IcoMoon.io -->
<svg version="1.1" xmlns="http://www.w3.org/2000/svg" width="32" height="32" viewBox="0 0 32 32">
<title>packUp</title>
<path d="M5.521 15.169l10.482-7.862 10.482 7.862c0.154 0.117 0.349 0.188 0.561 0.188 0 0 0 0 0.001 0h-0c0.285 0 0.567-0.13 0.751-0.375 0.311-0.414 0.227-1.002-0.188-1.313l-11.045-8.283c-0.155-0.117-0.35-0.188-0.563-0.188s-0.408 0.070-0.565 0.189l0.002-0.002-11.045 8.283c-0.414 0.311-0.498 0.898-0.188 1.313s0.898 0.498 1.313 0.188zM27.604 25.115l-11.045-8.284c-0.155-0.117-0.35-0.188-0.563-0.188s-0.408 0.070-0.565 0.189l0.002-0.002-11.045 8.284c-0.414 0.311-0.498 0.898-0.188 1.313s0.898 0.498 1.313 0.188l10.482-7.862 10.482 7.862c0.154 0.117 0.349 0.188 0.561 0.188 0 0 0 0 0.001 0h-0c0.285 0 0.567-0.13 0.751-0.375 0.311-0.414 0.227-1.002-0.188-1.313z"></path>
</svg>
