<!-- Generated by IcoMoon.io -->
<svg version="1.1" xmlns="http://www.w3.org/2000/svg" width="32" height="32" viewBox="0 0 32 32">
<title>rightRotate</title>
<path d="M26.971 4.65c-0.627 0-1.135 0.508-1.135 1.135v3.159c-2.254-3.151-5.877-5.051-9.837-5.051-6.675 0-12.106 5.431-12.106 12.106s5.431 12.106 12.106 12.106c4.92 0 9.315-2.939 11.194-7.488 0.12-0.29 0.11-0.6-0.001-0.867-0.117-0.28-0.335-0.498-0.608-0.612l-0.007-0.003c-0.289-0.12-0.599-0.111-0.867 0.001-0.279 0.118-0.497 0.336-0.612 0.608l-0.003 0.007c-1.527 3.696-5.097 6.084-9.095 6.084-5.424 0-9.836-4.413-9.836-9.837s4.413-9.836 9.836-9.836c3.395 0 6.485 1.72 8.285 4.54h-3.366c-0.627 0-1.135 0.508-1.135 1.135s0.508 1.135 1.135 1.135h6.053c0.627 0 1.135-0.508 1.135-1.135v-6.053c0-0.627-0.508-1.135-1.135-1.135z"></path>
</svg>
