<!-- Generated by IcoMoon.io -->
<svg version="1.1" xmlns="http://www.w3.org/2000/svg" width="32" height="32" viewBox="0 0 32 32">
<title>rule</title>
<path d="M25.478 14.369h-1.472c0.053 0.059 0.106 0.119 0.156 0.178 0.613 0.775 0.819 1.672 0.597 2.584l-2.25 9.316c0.313 0.1 0.631 0.156 0.953 0.156h1.387c1.534 0 3.072-1.219 3.434-2.719l1.644-6.797c0.363-1.503-1.628-2.719-4.45-2.719zM28.887 17.741l-1.309 5.534c-0.278 1.191-1.141 2.472-2.356 2.472h-1.103c-0.253 0-0.331 0.044-0.569-0.034l-0.009 0.038v-0.041c0.003 0 0.006 0.003 0.009 0.003l1.903-7.809c0.169-0.725 0.534-1.744 0.047-2.359-0.038-0.050-0.081-0.137-0.122-0.188l0.628 0.044c2.4 0.144 3.163 1.147 2.881 2.341zM24.194 13.009c1.878 0 3.4-1.522 3.4-3.4 0-1.875-1.522-3.397-3.4-3.397s-3.397 1.522-3.397 3.397c0 1.878 1.519 3.4 3.397 3.4zM24.194 7.072c1.428 0 2.587 1.156 2.587 2.584s-1.159 2.584-2.587 2.584c-1.428 0-2.584-1.159-2.584-2.584 0-1.428 1.156-2.584 2.584-2.584z"></path>
<path d="M17.756 13.184h-3.5c-3.866 0-6.609 1.669-6.128 3.728l2.184 9.319c0.481 2.059 2.578 3.728 4.678 3.728h1.906c2.103 0 4.209-1.669 4.706-3.728l2.25-9.319c0.5-2.059-2.231-3.728-6.097-3.728zM22.625 17.641l-1.9 7.859c-0.419 1.734-1.403 3.381-3.972 3.381h-1.606c-2.494 0-3.541-1.644-3.947-3.381l-1.844-7.859c-0.5-1.931 0.866-3.381 5.169-3.381h2.953c4.338 0 5.787 1.509 5.147 3.381zM15.994 11.319c2.572 0 4.659-2.084 4.659-4.659 0-2.572-2.084-4.659-4.659-4.659-2.572 0-4.659 2.084-4.659 4.659s2.084 4.659 4.659 4.659zM15.994 3.119c1.956 0 3.544 1.587 3.544 3.544s-1.587 3.544-3.544 3.544c-1.956 0-3.544-1.588-3.544-3.544 0-1.959 1.588-3.544 3.544-3.544zM11.194 9.609c0-1.875-1.522-3.397-3.397-3.397-1.878 0-3.4 1.522-3.4 3.397 0 1.878 1.519 3.4 3.4 3.4 1.875 0 3.397-1.522 3.397-3.4zM7.794 12.197c-1.428 0-2.584-1.159-2.584-2.584 0-1.428 1.156-2.584 2.584-2.584s2.584 1.156 2.584 2.584c0 1.425-1.156 2.584-2.584 2.584z"></path>
<path d="M3.65 23.884c0.35 1.5 1.881 2.719 3.416 2.719h1.388c0.322 0 0.641-0.056 0.953-0.156v-0.003l-2.184-9.319c-0.213-0.913-0.003-1.803 0.612-2.578 0.050-0.066 0.103-0.119 0.153-0.178h-1.462c-2.525 0-4.394 0.975-4.503 2.259v0.241c0.006 0.072 0.019 0.144 0.034 0.219l1.594 6.797zM5.938 15.403l0.628-0.044c-0.041 0.047-0.084 0.134-0.122 0.188-0.487 0.616-0.122 1.634 0.047 2.359l1.903 7.809c0.003 0 0.006-0.003 0.009-0.003v0.041l-0.009-0.038c-0.241 0.075-0.316 0.034-0.569 0.034h-1.106c-1.219 0-2.078-1.278-2.356-2.472l-1.309-5.538c-0.281-1.194 0.481-2.197 2.884-2.338z"></path>
<path d="M8.403 25.709c-0.003 0-0.006 0.003-0.009 0.003l0.009 0.038v-0.041zM23.538 25.753l0.009-0.038c-0.003 0-0.006-0.003-0.009-0.003v0.041z"></path>
<path d="M20.047 19.828l-4.647 4.637c-0.316 0.316-0.838 0.316-1.153 0l-2.306-2.303c-0.316-0.325-0.316-0.837 0-1.153 0.325-0.325 0.838-0.325 1.162-0.009l1.734 1.734 4.056-4.056c0.313-0.313 0.837-0.313 1.153 0 0.313 0.313 0.313 0.834 0 1.15z"></path>
</svg>
