<!-- Generated by IcoMoon.io -->
<svg version="1.1" xmlns="http://www.w3.org/2000/svg" width="32" height="32" viewBox="0 0 32 32">
<title>rss</title>
<path d="M27.723 20.233h-4.188v-4.188c0-0.144-0.118-0.262-0.262-0.262h-1.047c-0.144 0-0.262 0.118-0.262 0.262v4.188h-4.188c-0.144 0-0.262 0.118-0.262 0.262v1.047c0 0.144 0.118 0.262 0.262 0.262h4.188v4.188c0 0.144 0.118 0.262 0.262 0.262h1.047c0.144 0 0.262-0.118 0.262-0.262v-4.188h4.188c0.144 0 0.262-0.118 0.262-0.262v-1.047c0-0.144-0.118-0.262-0.262-0.262v0zM11.378 7.317c1.518 0 2.957 0.589 4.057 1.649l0.55 0.537 0.55-0.537c1.099-1.060 2.539-1.649 4.057-1.649 3.206 0 5.823 2.617 5.823 5.823 0 0.471-0.092 0.955-0.262 1.466 0 0-0.078 0.236-0.078 0.366 0 0.432 0.353 0.785 0.785 0.785 0.38 0 0.654-0.38 0.772-0.641 0.105-0.236 0.366-1.322 0.366-1.976 0-4.083-3.311-7.394-7.394-7.394-1.688 0-3.298 0.563-4.606 1.61v0c-1.309-1.047-2.918-1.61-4.606-1.61-4.083 0-7.394 3.311-7.394 7.394 0 5.208 8.519 11.254 11.11 12.968 0.013 0.013 0.039 0.026 0.039 0.026s0.262 0.118 0.406 0.118c0.432 0 0.785-0.353 0.785-0.785 0-0.275-0.144-0.523-0.366-0.654v0c-3.258-2.094-10.43-7.538-10.43-11.673 0.013-3.206 2.63-5.823 5.836-5.823v0z"></path>
</svg>
