<!-- Generated by IcoMoon.io -->
<svg version="1.1" xmlns="http://www.w3.org/2000/svg" width="32" height="32" viewBox="0 0 32 32">
<title>close</title>
<path d="M16.046 13.381l-9.829-10.178c-0.255-0.264-0.676-0.273-0.939-0.019l-1.712 1.653c-0.258 0.249-0.269 0.674-0.014 0.939l9.829 10.178-10.178 9.829c-0.264 0.255-0.273 0.676-0.019 0.939l1.653 1.712c0.249 0.258 0.674 0.269 0.939 0.014l10.178-9.829 9.829 10.178c0.255 0.264 0.676 0.273 0.939 0.019l1.712-1.653c0.258-0.249 0.269-0.674 0.014-0.939l-9.829-10.178 10.178-9.829c0.264-0.255 0.273-0.676 0.019-0.939l-1.653-1.712c-0.249-0.258-0.674-0.269-0.939-0.014l-10.178 9.829z"></path>
</svg>
