<!-- Generated by IcoMoon.io -->
<svg version="1.1" xmlns="http://www.w3.org/2000/svg" width="32" height="32" viewBox="0 0 32 32">
<title>comment</title>
<path d="M29.952 3.328h-26.98c-0.89 0.001-1.611 0.722-1.612 1.612v17.758c0 0.888 0.722 1.612 1.612 1.612h14.71l5.158 6.53c0.099 0.109 0.241 0.177 0.398 0.177 0.297 0 0.538-0.241 0.538-0.538 0-0.114-0.035-0.219-0.096-0.306l0.001 0.002-5.2-6.582c-0.075-0.208-0.27-0.355-0.5-0.356h-15.010c-0.297-0.001-0.537-0.241-0.538-0.538v-17.758c0.001-0.297 0.241-0.537 0.538-0.538h26.98c0.297 0.001 0.537 0.241 0.538 0.538v17.758c-0.001 0.297-0.241 0.537-0.538 0.538h-6.168c-0.278 0.025-0.494 0.256-0.494 0.538s0.216 0.513 0.491 0.538l0.002 0h6.168c0.89-0.001 1.611-0.722 1.612-1.612v-17.76c-0.001-0.89-0.722-1.611-1.612-1.612h-0z"></path>
<path d="M9.8 15.958c0.26 0.142 0.586 0.044 0.728-0.216 0.229-0.413 0.364-0.906 0.364-1.43 0-1.65-1.338-2.988-2.988-2.988-0.002 0-0.003 0-0.005 0h0c-1.648 0-2.992 1.34-2.992 2.99 0.001 1.652 1.34 2.991 2.992 2.991 0.317 0 0.622-0.049 0.909-0.141l-0.021 0.006c0.237-0.060 0.409-0.271 0.409-0.522 0-0.297-0.241-0.538-0.538-0.538-0.068 0-0.133 0.013-0.193 0.036l0.004-0.001c-0.171 0.055-0.367 0.087-0.57 0.087-1.059 0-1.918-0.859-1.918-1.918s0.859-1.918 1.918-1.918c1.059 0 1.918 0.859 1.918 1.918 0 0.336-0.087 0.652-0.239 0.927l0.005-0.010c-0.041 0.074-0.065 0.162-0.065 0.256 0 0.203 0.113 0.379 0.278 0.47l0.003 0.001zM18.36 15.956c0.26 0.142 0.586 0.046 0.728-0.214 0.229-0.413 0.363-0.905 0.363-1.429 0-1.652-1.34-2.992-2.992-2.992s-2.992 1.34-2.992 2.992c0 1.652 1.34 2.992 2.992 2.992 0.317 0 0.623-0.049 0.91-0.141l-0.021 0.006c0.221-0.070 0.379-0.273 0.379-0.513 0-0.296-0.24-0.537-0.537-0.537-0.056 0-0.111 0.009-0.162 0.025l0.004-0.001c-0.169 0.054-0.364 0.085-0.566 0.085-1.059 0-1.917-0.857-1.92-1.915v-0c0-0.002 0-0.004 0-0.006 0-1.059 0.859-1.918 1.918-1.918s1.918 0.859 1.918 1.918c0 0.338-0.087 0.656-0.241 0.931l0.005-0.010c-0.041 0.074-0.066 0.162-0.066 0.256 0 0.202 0.112 0.377 0.277 0.468l0.003 0.001zM26.924 15.956c0.26 0.142 0.586 0.046 0.728-0.214 0.229-0.413 0.364-0.906 0.364-1.43 0-1.652-1.34-2.992-2.992-2.992s-2.992 1.34-2.992 2.992c0 1.652 1.34 2.992 2.992 2.992 0.319 0 0.625-0.050 0.913-0.142l-0.021 0.006c0.237-0.060 0.409-0.271 0.409-0.522 0-0.297-0.241-0.538-0.538-0.538-0.068 0-0.133 0.013-0.193 0.036l0.004-0.001c-0.169 0.054-0.364 0.085-0.566 0.085-1.059 0-1.917-0.857-1.92-1.915v-0c0-0.002 0-0.004 0-0.006 0-1.059 0.859-1.918 1.918-1.918s1.918 0.859 1.918 1.918c0 0.338-0.087 0.656-0.241 0.931l0.005-0.010c-0.043 0.075-0.068 0.165-0.068 0.26 0 0.201 0.112 0.376 0.278 0.466l0.003 0.001z"></path>
</svg>
