<!-- Generated by IcoMoon.io -->
<svg version="1.1" xmlns="http://www.w3.org/2000/svg" width="32" height="32" viewBox="0 0 32 32">
<title>del</title>
<path d="M19.279 23.911c-0.549 0-0.928-0.399-0.928-0.949l-0.032-10.868c0-0.55 0.337-1.066 0.886-1.066 0.551 0 0.77 0.444 0.77 0.995v10.939c0 0.55-0.444 0.995-0.995 0.995l0.3-0.046zM12.857 23.895c-0.55 0-0.839-0.383-0.839-0.933v-10.939c0-0.55 0.278-0.979 0.828-0.979s0.85 0.429 0.85 0.979v10.939c-0 0.55-0.289 0.933-0.839 0.933v0zM28.925 7.352h-4.973v-2.292c0-1.645-1.327-2.983-2.961-2.983h-9.967c-1.645 0-2.984 1.338-2.984 2.983v2.292h-4.972c-0.55 0-0.973 0.348-0.973 0.898s0.423 0.789 0.973 0.789h25.857c0.551 0 0.98-0.288 0.98-0.837s-0.43-0.849-0.98-0.849v0zM9.774 5.095c0-0.548-0.078-1.276 1.239-1.276h9.967c1.106-0.016 1.31 0.677 1.31 1.234v2.344l-12.516-0.010v-2.292zM22.962 29.924h-13.925c-1.645 0-2.983-1.339-2.983-2.983v-14.933c0-0.549 0.445-0.995 0.995-0.995s0.732 0.538 0.732 1.086v14.933c0 0.549 0.709 1.188 1.257 1.188h13.925c0.549 0 1.318-0.723 1.318-1.271v-14.893c0-0.549 0.334-0.979 0.884-0.979s0.782 0.422 0.782 0.971v14.893c0 1.645-1.34 2.983-2.984 2.983v0z"></path>
</svg>
