<!-- Generated by IcoMoon.io -->
<svg version="1.1" xmlns="http://www.w3.org/2000/svg" width="32" height="32" viewBox="0 0 32 32">
<title>edit</title>
<path d="M3.748 29.99h20.099c0.965 0 1.748-0.783 1.748-1.748v-12.799l-1.748 1.669v11.13h-20.099v-21.847h12.278l1.767-1.703-0.046-0.045h-14c-0.965 0-1.748 0.783-1.748 1.748v21.847c0 0.965 0.783 1.748 1.748 1.748zM28.623 3.149c-0.789-0.756-1.659-1.139-2.588-1.139-1.453 0-2.513 0.939-2.802 1.226-0.409 0.404-11.993 11.971-11.993 11.971-0.091 0.093-0.157 0.206-0.191 0.332-0.314 1.16-1.886 6.308-1.902 6.359-0.081 0.264-0.009 0.551 0.186 0.743 0.14 0.14 0.326 0.214 0.516 0.214 0.075 0 0.151-0.011 0.225-0.034 0.053-0.018 5.366-1.736 6.241-1.997 0.115-0.034 0.22-0.096 0.306-0.181 0.552-0.544 11.2-11.027 12.062-11.917 0.891-0.919 1.334-1.875 1.317-2.843-0.016-0.955-0.481-1.876-1.377-2.734zM27.427 7.51c-0.486 0.502-4.294 4.264-11.318 11.184l-0.538 0.53c-0.805 0.249-2.733 0.869-4.191 1.339 0.469-1.55 1.033-3.422 1.284-4.308 1.501-1.499 11.426-11.409 11.803-11.781 0.073-0.073 0.743-0.717 1.569-0.717 0.469 0 0.92 0.214 1.378 0.653 0.548 0.526 0.83 1.031 0.838 1.503 0.009 0.486-0.269 1.022-0.824 1.596z"></path>
</svg>
