<!-- Generated by IcoMoon.io -->
<svg version="1.1" xmlns="http://www.w3.org/2000/svg" width="32" height="32" viewBox="0 0 32 32">
<title>emoji</title>
<path d="M12 12.8c0-1.768-1.432-3.2-3.2-3.2s-3.2 1.434-3.2 3.2 1.434 3.2 3.2 3.2 3.2-1.432 3.2-3.2zM8.8 14.902c-1.16 0-2.1-0.942-2.1-2.102s0.94-2.1 2.1-2.1 2.102 0.94 2.102 2.1-0.942 2.102-2.102 2.102zM16 0c-8.836 0-16 7.164-16 16s7.164 16 16 16c8.834 0 16-7.164 16-16s-7.164-16-16-16zM16 30.382c-7.944 0-14.382-6.438-14.382-14.382 0-7.942 6.44-14.382 14.382-14.382 7.944 0 14.382 6.44 14.382 14.382 0 7.946-6.436 14.382-14.382 14.382zM23.2 18.402c-0.704-0.152-0.95 0.798-0.95 0.798-0.394 3.106-3.040 5.504-6.25 5.504-1.192 0-2.294-0.348-3.246-0.922-0.296-0.286-1.224-0.734-1.554-0.582-0.918 0.426-0.23 1.414-0.23 1.414 1.376 1.112 3.122 1.788 5.030 1.788 4.026 0 7.346-2.976 7.906-6.844 0.052-0.058 0.11-0.984-0.706-1.156zM19.2 14.402h6.402v-1.602h-6.402v1.602z"></path>
</svg>
