<!-- Generated by IcoMoon.io -->
<svg version="1.1" xmlns="http://www.w3.org/2000/svg" width="32" height="32" viewBox="0 0 32 32">
<title>enlarge</title>
<path d="M29.61 28.089l-6.898-6.898c1.724-2.018 2.763-4.634 2.763-7.489 0-6.367-5.18-11.547-11.547-11.547s-11.547 5.18-11.547 11.547 5.18 11.55 11.547 11.55c2.856 0 5.471-1.042 7.489-2.763l6.898 6.898c0.179 0.179 0.413 0.269 0.649 0.269 0.233 0 0.47-0.090 0.649-0.269 0.355-0.361 0.355-0.94-0.003-1.298zM4.213 13.702c0-5.356 4.359-9.715 9.715-9.715s9.715 4.359 9.715 9.715c0 5.356-4.359 9.715-9.715 9.715s-9.715-4.359-9.715-9.715z"></path>
</svg>
