<!-- Generated by IcoMoon.io -->
<svg version="1.1" xmlns="http://www.w3.org/2000/svg" width="32" height="32" viewBox="0 0 32 32">
<title>img</title>
<path d="M30.67 27.116h-29.339v-22.482h29.339v22.482zM2.098 26.349h27.804v-20.947h-27.804v20.947z"></path>
<path d="M22.857 15.116c-1.472 0-2.669-1.198-2.669-2.669s1.198-2.669 2.669-2.669 2.669 1.198 2.669 2.669-1.198 2.669-2.669 2.669zM22.857 10.545c-1.049 0-1.902 0.853-1.902 1.902s0.853 1.902 1.902 1.902 1.902-0.853 1.902-1.902-0.853-1.902-1.902-1.902z"></path>
<path d="M20.28 21.839l-4.054-4.743-4.010 2.957-5.598-7.028-4.63 4.705-0.547-0.538 5.238-5.323 5.677 7.128 3.99-2.942 4.518 5.285z"></path>
</svg>
