<!-- Generated by IcoMoon.io -->
<svg version="1.1" xmlns="http://www.w3.org/2000/svg" width="32" height="32" viewBox="0 0 32 32">
<title>index</title>
<path d="M18.737 2.315c-0.592-0.592-1.405-0.962-2.219-0.962-0.888 0-1.701 0.37-2.219 0.962l-11.836 12.206c-0.962 1.036-0.814 1.775-0.74 1.997 0.148 0.37 0.518 0.74 1.332 0.74h1.701c0.37 0 0.74 0.296 0.74 0.74v9.395c0 1.627 1.11 3.403 3.033 3.403h3.107c0.444 0 0.74-0.296 0.74-0.74v-11.318h8.063v11.318c0 0.444 0.296 0.74 0.74 0.74h3.107c1.849 0 3.033-1.775 3.033-3.403v-9.395c0-0.444-0.296-0.74-0.74-0.74s-0.74 0.296-0.74 0.74v9.395c0 0.962-0.592 1.923-1.553 1.923h-2.367v-10.726c0-0.74-0.592-1.332-1.332-1.332h-8.285c-0.74 0-1.332 0.592-1.332 1.332v10.726h-2.367c-0.962 0-1.553-0.962-1.553-1.923v-9.395c0-1.184-0.962-2.219-2.219-2.219h-1.553c0.074-0.074 0.148-0.148 0.222-0.296l11.762-12.206c0.296-0.296 0.74-0.444 1.184-0.444s0.888 0.148 1.184 0.444l11.762 12.206c0.296 0.296 0.74 0.296 1.036 0s0.296-0.74 0-1.036l-11.688-12.132z"></path>
</svg>
