<!-- Generated by IcoMoon.io -->
<svg version="1.1" xmlns="http://www.w3.org/2000/svg" width="32" height="32" viewBox="0 0 32 32">
<title>leftRotate</title>
<path d="M3.894 5.785v6.053c0 0.627 0.508 1.135 1.135 1.135h6.053c0.627 0 1.135-0.508 1.135-1.135s-0.508-1.135-1.135-1.135h-3.366c1.8-2.82 4.89-4.54 8.285-4.54 5.424 0 9.837 4.413 9.837 9.836s-4.413 9.836-9.837 9.836c-3.998 0-7.569-2.388-9.095-6.084-0.118-0.279-0.335-0.497-0.607-0.613l-0.007-0.003c-0.268-0.112-0.579-0.121-0.867-0.001-0.28 0.117-0.498 0.335-0.613 0.607l-0.003 0.007c-0.111 0.267-0.12 0.578-0.001 0.867 1.879 4.549 6.273 7.488 11.194 7.488 6.675 0 12.106-5.431 12.106-12.106s-5.431-12.106-12.106-12.106c-3.959 0-7.583 1.899-9.836 5.051v-3.159c0-0.627-0.508-1.135-1.135-1.135s-1.135 0.508-1.135 1.135z"></path>
</svg>
