<!-- Generated by IcoMoon.io -->
<svg version="1.1" xmlns="http://www.w3.org/2000/svg" width="32" height="32" viewBox="0 0 32 32">
<title>like</title>
<path fill="#8a8a8a" d="M31 20.125c0-1.125-0.375-1.875-1.125-2.25 0.375-0.375 1.125-1.5 1.125-2.625 0-1.688-1.688-3-4.313-3h-6.75c1.125-3.188 0.938-7.313-0.563-9.563-0.75-1.313-1.875-1.688-2.438-1.688-2.625 0-2.625 2.438-2.625 3.188 0 2.625-0.375 3.938-0.938 5.063-0.375 0.563-2.625 3-5.063 3h-4.313c-1.875 0-3 1.5-3 3.563l1.125 12.188c0.188 1.875 1.125 3 3 3h2.625c0.563 0 1.125-0.375 1.5-0.75 0.375-0.188 0.563-0.375 0.75-0.375s0.563 0.375 1.313 0.563c0.563 0.375 1.5 0.563 2.625 0.563h9.375c3.188 0 4.688-1.125 4.688-3.188 0-0.563-0.188-0.938-0.375-1.313 1.313-0.375 2.438-1.125 2.438-2.438 0-0.563-0.188-1.313-0.563-1.5 0.188 0 1.5-1.125 1.5-2.438v0 0 0zM7.375 29.875h-2.625c-0.75 0-1.313-0.75-1.5-1.5l-1.125-12.75c0-0.938 0.75-2.063 1.875-2.063v0h4.5v15.563c-0.188 0.188-0.375 0.188-0.563 0.375s-0.375 0.375-0.563 0.375v0 0 0zM27.813 21.813h-0.188v1.125c0.188 0 0.563 0.188 0.563 1.125 0 1.125-1.313 1.5-2.625 1.5v0 1.125c0.563 0.188 0.563 0.563 0.563 1.125 0 1.125-0.938 2.063-3.375 2.063h-9.563c-0.375 0-1.313-0.188-1.875-0.563-0.563-0.188-1.313-0.75-1.688-0.938v-15c2.438-0.75 4.5-2.813 4.875-3.75 0.563-1.313 0.75-2.625 0.75-5.625 0-1.5 0.563-1.688 1.125-1.688s1.313 0.563 1.688 1.125c1.125 1.875 1.5 5.813 0 9v1.125h8.625c1.5 0 3 0.75 3 1.688v0.375c0 0 0 0.938-0.563 1.313-0.375 0.375-0.75 0.375-0.75 0.375v1.125c0 0 0.563 0 0.75 0.188 0.375 0.188 0.563 0.75 0.563 1.313 0 0.75-1.125 1.875-1.875 1.875v0 0 0z"></path>
</svg>
