<!-- Generated by IcoMoon.io -->
<svg version="1.1" xmlns="http://www.w3.org/2000/svg" width="34" height="32" viewBox="0 0 34 32">
<title>more</title>
<path d="M2.224 14.406l13.552 14.551c0.713 0.571 1.284 0.571 2.14 0l13.409-14.551c0.713-0.713 0.428-1.569-0.143-1.855-0.428-0.143-0.999-0.143-1.427 0.428l-12.411 13.267c-0.143 0.285-0.856 0.285-0.999 0l-12.411-13.267c-0.428-0.571-0.999-0.571-1.427-0.428-0.571 0.285-0.856 1.141-0.285 1.855zM4.221 3.136l11.555 12.411c0.713 0.713 1.284 0.713 2.14 0l11.555-12.411c0.571-0.713 0.285-1.569-0.285-1.712-0.428-0.143-0.856-0.143-1.427 0.285l-10.414 11.127c-0.143 0.285-0.856 0.285-0.999 0.143l-10.414-11.27c-0.571-0.428-0.999-0.428-1.427-0.285-0.571 0.143-0.856 0.999-0.285 1.712z"></path>
</svg>
