<!-- Generated by IcoMoon.io -->
<svg version="1.1" xmlns="http://www.w3.org/2000/svg" width="32" height="32" viewBox="0 0 32 32">
<title>notData</title>
<path d="M28.063 0h-24.296c-0.971 0-1.759 0.788-1.759 1.759v16.723c0 0.967 0.792 1.759 1.759 1.759h1.321c0.097 0.282 0.25 0.522 0.446 0.72l-0-0c0.053 0.055 0.121 0.096 0.197 0.115l0.003 0.001c2.203 0.57 2.748 1.281 2.878 1.653 0.146 0.414 0.136 0.66 0.13 0.76-0.022 0.030-0.030 8.493-0.030 8.493h0.945s-0.020-8.135-0.004-8.461c-0.032-0.644-0.21-1.059-0.21-1.059-0.426-0.969-1.465-1.653-3.374-2.167-0.16-0.19-0.208-0.346-0.208-0.47v-0.002c0-0.17 0.106-0.34 0.3-0.486l0.016-0.012c0.067-0.050 0.142-0.096 0.222-0.134l0.008-0.004c0.080-0.040 0.174-0.070 0.266-0.104 0.148-0.034 0.41-0.082 0.834-0.082 0.738 0 1.599 0.144 2.555 0.428 0.16 0.072 0.322 0.142 0.48 0.228 0.297 0.159 0.546 0.313 0.784 0.48l-0.025-0.016 0.054 0.032c3.222 2.265 2.862 3.406 2.864 3.406-0.030 0.057-0.048 0.124-0.048 0.196 0 0.233 0.187 0.422 0.42 0.424h0c0.001 0 0.002 0 0.003 0 0.16 0 0.299-0.090 0.37-0.222l0.001-0.002c0.132-0.252 0.572-1.515-2.103-3.708h7.458c-2.671 2.191-2.231 3.452-2.099 3.702 0.076 0.14 0.221 0.233 0.388 0.234h0c0.060 0 0.126-0.016 0.188-0.048 0.136-0.068 0.228-0.206 0.228-0.366 0-0.070-0.018-0.136-0.049-0.194l0.001 0.002c-0.002-0.012-0.384-1.155 2.858-3.428 0.374-0.266 0.799-0.509 1.249-0.707l0.047-0.018c0.955-0.28 1.815-0.426 2.549-0.426 0.422 0 0.686 0.048 0.83 0.084 0.092 0.032 0.19 0.064 0.268 0.106 0.016 0.010 0.030 0.014 0.046 0.020 0.070 0.040 0.138 0.080 0.194 0.12l0.010 0.008c0.19 0.148 0.298 0.316 0.3 0.488l0.004 0.004c-0.014 0.183-0.090 0.345-0.208 0.468l0-0c-1.909 0.514-3.036 1.245-3.35 2.179-0.1 0.314-0.128 0.396-0.172 1.159 0.064 0.164 0.106 8.349 0.106 8.349h0.816l-0.046-8.491c0.020-0.464 0.1-0.75 0.1-0.75 0.124-0.374 0.668-1.089 2.884-1.665 0.078-0.021 0.144-0.061 0.196-0.116l0-0c0.198-0.198 0.352-0.439 0.446-0.708l0.004-0.013c0.954-0.022 1.719-0.801 1.719-1.759 0-0 0-0 0-0v0-16.721c-0.002-0.971-0.788-1.757-1.759-1.759h-0zM6.479 8.087h3.752c0.16 0.56 0.428 1.975-0.208 3.762l-0.044 0.124c-0.306 0.856-0.69 1.921 0.16 4.12 0.52 1.343 0.2 2.109-0.018 2.433h0.002l-0.112-0.044c-0.418-0.165-0.906-0.295-1.413-0.368l-0.036-0.004c-0.040-0.006-0.080-0.012-0.12-0.014-0.185-0.023-0.401-0.038-0.62-0.040l-0.003-0-0.136 0.004c-0.175 0.003-0.344 0.016-0.51 0.038l0.022-0.002-0.124 0.014c-0.032 0.006-0.060 0.014-0.094 0.018 0.148-0.698 0.246-1.731-0.214-2.421-0.492-0.744-0.608-3.034-0.008-4.761 0.26-0.74-0.050-2.087-0.272-2.858zM23.052 16.097c0.85-2.203 0.466-3.268 0.16-4.124l-0.046-0.12c-0.634-1.791-0.362-3.206-0.204-3.762h3.75c-0.222 0.768-0.532 2.113-0.272 2.858 0.596 1.731 0.484 4.022-0.010 4.763-0.46 0.69-0.36 1.723-0.214 2.419l-0.1-0.016-0.084-0.008c-0.159-0.022-0.349-0.037-0.541-0.042l-0.007-0-0.074-0.004c-0.845 0.006-1.649 0.178-2.382 0.485l0.041-0.015c-0.22-0.324-0.54-1.091-0.020-2.435zM28.981 18.482c-0.002 0.492-0.39 0.894-0.878 0.915l-0.002 0c-0.063-0.179-0.156-0.333-0.273-0.465l0.001 0.001-0.076-0.076c-0.064-0.065-0.133-0.126-0.205-0.181l-0.005-0.003-0.074-0.056c-0.053-0.037-0.116-0.077-0.18-0.114l-0.012-0.006-0.082-0.054-0.030-0.012s-0.004 0-0.004-0.004c-0.16-0.54-0.398-1.703-0.030-2.255 0.704-1.057 0.752-3.63 0.104-5.505-0.174-0.506 0.098-1.747 0.354-2.583h0.166c0.233 0 0.423-0.189 0.423-0.423s-0.189-0.423-0.423-0.423v0h-5.463c-0.056-0.029-0.121-0.046-0.191-0.046-0.232 0-0.42 0.188-0.42 0.42s0.187 0.419 0.419 0.42h0c-0.188 0.752-0.392 2.237 0.27 4.096l0.044 0.126c0.274 0.762 0.584 1.625-0.15 3.532-0.6 1.547-0.288 2.553 0.032 3.092-0.28 0.148-0.564 0.32-0.85 0.514h-9.695l-0.084-0.050c-0.216-0.15-0.47-0.306-0.732-0.448l-0.044-0.022c0.32-0.54 0.632-1.547 0.032-3.090-0.738-1.903-0.428-2.766-0.154-3.528l0.048-0.13c0.66-1.859 0.458-3.34 0.27-4.094 0.137-0.071 0.229-0.212 0.229-0.374 0-0.231-0.187-0.419-0.419-0.42h-5.457c-0.233 0-0.422 0.189-0.422 0.422s0.189 0.422 0.422 0.422h0.164c0.256 0.84 0.528 2.079 0.354 2.583-0.638 1.839-0.588 4.463 0.104 5.505 0.366 0.55 0.13 1.715-0.030 2.257-0.008 0.006-0.024 0.008-0.032 0.014l-0.092 0.056c-0.073 0.042-0.132 0.079-0.189 0.118l0.009-0.006-0.082 0.060c-0.074 0.056-0.139 0.113-0.199 0.175l-0.028 0.028c-0.018 0.018-0.040 0.034-0.056 0.052-0.050 0.060-0.092 0.124-0.134 0.186l-0.002 0.006c-0.052 0.079-0.098 0.17-0.133 0.267l-0.003 0.009h-1.321c-0.506 0-0.915-0.41-0.915-0.916v0-16.723c0-0.504 0.41-0.915 0.915-0.915h24.296c0.504 0 0.916 0.412 0.916 0.915l-0.004 16.729zM15.023 6.125c-0.001-0.232-0.19-0.42-0.422-0.42 0 0 0 0 0 0v0c-1.429 0-2.639-0.883-3.222-1.309-0.090-0.070-0.192-0.141-0.298-0.207l-0.016-0.009c-0.055-0.027-0.119-0.043-0.187-0.043-0.234 0-0.424 0.19-0.424 0.424 0 0.143 0.071 0.27 0.18 0.346l0.001 0.001c0.056 0.034 0.14 0.094 0.244 0.174 0.656 0.478 2.017 1.469 3.718 1.469 0.235-0.001 0.425-0.191 0.426-0.426v-0zM21.063 4.18c-0.070 0.044-0.176 0.12-0.312 0.216-0.582 0.426-1.791 1.307-3.222 1.307-0.233 0-0.422 0.189-0.422 0.422s0.189 0.422 0.422 0.422v0c1.701 0 3.062-0.991 3.718-1.469 0.106-0.076 0.188-0.14 0.248-0.174 0.124-0.075 0.205-0.209 0.205-0.362 0-0.233-0.189-0.421-0.421-0.421-0.080 0-0.154 0.022-0.218 0.061l0.002-0.001zM18.924 15.635l-2.836-1.275c-0.050-0.024-0.109-0.037-0.172-0.037-0.070 0-0.136 0.018-0.194 0.048l0.002-0.001-2.509 1.271c-0.139 0.070-0.232 0.212-0.232 0.376 0 0.070 0.017 0.136 0.048 0.194l-0.001-0.002c0.072 0.138 0.214 0.231 0.377 0.231 0.069 0 0.135-0.017 0.193-0.046l-0.002 0.001 2.329-1.179 2.652 1.187c0.052 0.024 0.112 0.039 0.176 0.039 0.169 0 0.315-0.101 0.381-0.246l0.001-0.003c0.023-0.051 0.037-0.11 0.037-0.173 0-0.17-0.101-0.317-0.246-0.384l-0.003-0.001z"></path>
</svg>
