<!-- Generated by IcoMoon.io -->
<svg version="1.1" xmlns="http://www.w3.org/2000/svg" width="32" height="32" viewBox="0 0 32 32">
<title>password</title>
<path d="M16.245 16.937c-1.055 0-1.911 0.855-1.911 1.91 0 0.76 0.448 1.412 1.092 1.719v2.101c0 0.452 0.367 0.819 0.819 0.819s0.819-0.367 0.819-0.819v-2.101c0.644-0.307 1.092-0.959 1.092-1.719 0-1.055-0.855-1.91-1.91-1.91v0zM24.16 13.117h-16.373c-0.904 0-1.638 0.732-1.638 1.637v10.916c0 0.904 0.733 1.637 1.638 1.637h16.373c0.904 0 1.637-0.733 1.637-1.637v-10.916c0-0.904-0.733-1.637-1.637-1.637v0zM24.16 24.578c0 0.904-0.187 1.092-1.092 1.092h-14.191c-0.904 0-1.091-0.187-1.091-1.092v-8.732c0-0.904 0.186-1.092 1.091-1.092h14.191c0.904 0 1.092 0.187 1.092 1.092v8.732zM8.236 12.293c0.455 0 0.824-0.362 0.837-0.814l0.002 0c0.74-3.128 3.544-5.458 6.898-5.458 2.622 0 4.904 1.427 6.13 3.543 0.128 0.289 0.416 0.491 0.753 0.491 0.454 0 0.823-0.368 0.823-0.823 0-0.177-0.056-0.341-0.151-0.476-1.509-2.611-4.321-4.373-7.554-4.373-4.224 0-7.742 2.899-8.552 6.881-0.004 0.017-0.007 0.033-0.010 0.050-0.004 0.020-0.008 0.040-0.012 0.060l0.004 0c-0.003 0.027-0.004 0.054-0.004 0.081-0 0.462 0.375 0.837 0.837 0.837v0z"></path>
</svg>
