<!-- Generated by IcoMoon.io -->
<svg version="1.1" xmlns="http://www.w3.org/2000/svg" width="32" height="32" viewBox="0 0 32 32">
<title>report</title>
<path d="M16.050 2.806c-1 0-1.8 0.4-2.2 1.2l-13.4 21.4c-0.6 0.8-0.6 1.6 0 2.4 0.4 0.8 1.4 1.4 2.2 1.4h26.8c1 0 1.6-0.6 2.2-1.4 0.4-0.8 0.4-1.6 0-2.4l-13.4-21.4c-0.6-0.8-1.2-1.2-2.2-1.2zM16.050 4.606c0.4 0 0.6 0.2 0.8 0.4l13.2 21.2c0.4 0.6 0 1.4-0.8 1.4h-26.6c-0.8 0-1.2-0.8-0.8-1.4l13.4-21.2c0.2-0.4 0.4-0.4 0.8-0.4z"></path>
<path d="M16.25 20.406h-0.6l-0.8-9.4c0-0.8 0.4-1.6 1.2-1.6s1.4 1 1.2 1.6l-1 9.4zM16.050 24.406c-0.8 0-1.4-0.6-1.4-1.4s0.6-1.4 1.4-1.4c0.8 0 1.4 0.6 1.4 1.4-0.2 0.8-0.6 1.4-1.4 1.4z"></path>
</svg>
