<!-- Generated by IcoMoon.io -->
<svg version="1.1" xmlns="http://www.w3.org/2000/svg" width="35" height="32" viewBox="0 0 35 32">
<title>sys</title>
<path d="M19.592 12.791l-1.703-0.147c-0.141-0.434-0.282-0.725-0.426-1.015l1.138-1.455c0.568-0.581 0.426-1.599-0.144-2.18l-0.994-1.018c-0.568-0.581-1.562-0.581-2.129-0.144l-1.42 1.162c-0.282-0.147-0.568-0.293-0.994-0.437l-0.141-1.743c-0.141-0.871-0.709-1.455-1.562-1.455h-1.42c-0.853 0-1.562 0.584-1.562 1.455l-0.141 1.743c-0.426 0.147-0.712 0.293-1.135 0.437l-1.42-1.162c-0.25-0.195-0.568-0.313-0.914-0.313-0.422 0-0.802 0.175-1.074 0.456l-0 0-0.994 1.018c-0.568 0.581-0.568 1.599-0.141 2.18l1.135 1.455c-0.141 0.29-0.285 0.725-0.426 1.015l-1.706 0.147c-0.847 0.147-1.418 0.728-1.418 1.599v1.306c0 0.874 0.568 1.599 1.42 1.599l1.706 0.147c0.139 0.437 0.282 0.727 0.424 1.018l-1.135 1.455c-0.568 0.581-0.426 1.599 0.141 2.18l0.994 1.018c0.568 0.581 1.562 0.581 2.132 0.144l1.418-1.162c0.282 0.144 0.709 0.29 0.994 0.437l0.141 1.743c0.141 0.871 0.712 1.455 1.562 1.455h1.279c0.853 0 1.562-0.584 1.562-1.455l0.141-1.743c0.426-0.147 0.709-0.293 0.994-0.437l1.42 1.162c0.568 0.581 1.562 0.437 2.129-0.144l0.994-1.018c0.568-0.581 0.568-1.599 0.141-2.18l-1.135-1.455c0.141-0.29 0.285-0.725 0.426-1.018l1.706-0.144c0.85-0.147 1.418-0.727 1.418-1.599v-1.308c0.141-0.728-0.426-1.452-1.279-1.599zM10.223 18.894c-1.988 0-3.55-1.599-3.55-3.632s1.562-3.632 3.55-3.632c1.988 0 3.55 1.599 3.55 3.632 0 2.036-1.562 3.635-3.55 3.635zM32.088 4.943l-0.994-0.147c-0.038-0.227-0.139-0.425-0.286-0.582l0.001 0.001 0.57-0.871c0.133-0.181 0.213-0.408 0.213-0.654s-0.080-0.473-0.215-0.657l0.002 0.003-0.573-0.584c-0.161-0.169-0.387-0.274-0.638-0.274s-0.478 0.105-0.638 0.274l-0 0-0.853 0.728c-0.136-0.144-0.28-0.288-0.562-0.288l-0.141-1.018c0-0.434-0.426-0.871-0.994-0.871h-0.853c-0.426 0-0.853 0.437-0.994 0.871l0.144 1.018c-0.224 0.039-0.42 0.144-0.57 0.293l0-0-0.855-0.736c-0.175-0.136-0.397-0.218-0.638-0.218s-0.464 0.082-0.641 0.219l0.002-0.002-0.568 0.584c-0.165 0.168-0.267 0.399-0.267 0.653s0.102 0.485 0.267 0.653l-0-0 0.712 0.874c-0.144 0.144-0.144 0.434-0.285 0.581l-0.994 0.147c-0.426 0-0.853 0.434-0.853 1.015v0.874c0 0.434 0.426 0.871 0.853 1.015l0.994-0.144c0 0.144 0.141 0.437 0.285 0.581l-0.712 0.871c-0.133 0.181-0.213 0.408-0.213 0.654s0.080 0.473 0.215 0.657l-0.002-0.003 0.568 0.581c0.161 0.17 0.388 0.276 0.64 0.276s0.479-0.106 0.639-0.275l0-0 0.853-0.725c0.141 0.144 0.426 0.144 0.568 0.29l0.141 1.018c0 0.434 0.426 0.871 0.994 0.871h0.709c0.426 0 0.853-0.437 0.994-0.871l0.141-1.018c0.224-0.039 0.42-0.144 0.57-0.293l-0 0 0.853 0.728c0.426 0.293 0.85 0.293 1.276 0l0.568-0.581c0.165-0.168 0.267-0.399 0.267-0.653s-0.102-0.485-0.267-0.653l0 0-0.712-0.874c0.144-0.144 0.144-0.437 0.285-0.581h0.994c0.426 0 0.853-0.437 0.853-1.018v-0.728c0-0.581-0.426-1.015-0.853-1.015zM26.55 8.432c-1.135 0-1.988-0.874-1.988-2.036s0.853-2.036 1.988-2.036 1.988 0.874 1.988 2.036-0.853 2.036-1.988 2.036zM33.506 22.529l-1.276-0.144c-0.141-0.293-0.141-0.437-0.282-0.727l0.709-1.018c0.426-0.434 0.285-1.162-0.141-1.452l-0.712-0.727c-0.197-0.213-0.478-0.346-0.79-0.346-0.236 0-0.454 0.076-0.631 0.205l0.003-0.002-0.994 0.725c-0.285-0.144-0.426-0.29-0.712-0.29l-0.141-1.306c0-0.584-0.568-1.018-1.135-1.018h-0.994c-0.568 0-0.994 0.434-1.135 1.015l-0.144 1.308c-0.282 0.147-0.426 0.147-0.709 0.293l-0.994-0.727c-0.426-0.437-1.135-0.293-1.42 0.144l-0.709 0.727c-0.21 0.206-0.339 0.493-0.339 0.811 0 0.24 0.074 0.462 0.201 0.645l-0.003-0.004 0.709 1.018c-0.141 0.293-0.285 0.437-0.285 0.727l-1.279 0.147c-0.565 0-0.991 0.581-0.991 1.162v1.018c0 0.581 0.426 1.018 0.994 1.162l1.279 0.147c0.141 0.29 0.141 0.434 0.282 0.725l-0.709 1.018c-0.426 0.437-0.285 1.165 0.141 1.455l0.709 0.725c0.426 0.437 0.994 0.437 1.42 0.147l0.994-0.727c0.282 0.147 0.426 0.293 0.709 0.293l0.144 1.306c0 0.581 0.568 1.018 1.135 1.018h0.994c0.568 0 0.994-0.437 1.135-1.018l0.141-1.306c0.285-0.147 0.426-0.147 0.712-0.293l0.994 0.727c0.426 0.437 1.135 0.29 1.418-0.147l0.712-0.725c0.21-0.207 0.34-0.494 0.34-0.812 0-0.24-0.075-0.463-0.202-0.647l0.002 0.004-0.568-1.162c0.141-0.293 0.285-0.437 0.285-0.727l1.276-0.144c0.568 0 0.994-0.584 0.994-1.165v-1.018c-0.141-0.581-0.568-1.015-1.135-1.015zM27.118 26.601c-1.279 0-2.414-1.165-2.414-2.47 0-1.308 1.138-2.473 2.414-2.473 1.279 0 2.414 1.165 2.414 2.473 0 1.306-1.135 2.47-2.414 2.47z"></path>
</svg>
