<!-- Generated by IcoMoon.io -->
<svg version="1.1" xmlns="http://www.w3.org/2000/svg" width="32" height="32" viewBox="0 0 32 32">
<title>user</title>
<path d="M26.834 27.492h-1.453c-0.28-3.631-2.667-6.675-5.953-7.953-1.044 0.496-2.21 0.783-3.446 0.783s-2.402-0.286-3.446-0.783c-3.286 1.278-5.673 4.322-5.953 7.953h-1.453c0.259-3.878 2.6-7.187 5.925-8.863-1.855-1.444-3.050-3.679-3.050-6.195 0-4.356 3.571-7.888 7.977-7.888s7.977 3.531 7.977 7.888c0 2.515-1.195 4.75-3.050 6.195 3.325 1.676 5.666 4.985 5.925 8.863zM22.508 12.434c0-3.564-2.922-6.453-6.527-6.453s-6.527 2.889-6.527 6.453 2.922 6.453 6.527 6.453 6.527-2.889 6.527-6.453z"></path>
</svg>
